<svg width="9336" height="956" viewBox="0 0 9336 956" fill="none" xmlns="http://www.w3.org/2000/svg">
<path d="M8995.82 955.168C8809.23 955.168 8656.01 803.179 8656.01 615.356C8656.01 427.532 8809.23 275.544 8995.82 275.544C9183.64 275.544 9335.63 427.532 9335.63 615.356C9335.63 803.179 9183.64 955.168 8995.82 955.168ZM8759.81 615.356C8759.81 633.891 8790.7 638.834 8799.35 668.49C8808 698.146 8785.75 717.917 8793.17 732.745C8801.82 747.574 8831.47 736.452 8852.48 758.695C8873.49 784.644 8864.84 809.358 8879.67 819.243C8895.73 827.893 8913.03 803.179 8942.69 813.065C8974.81 822.95 8978.52 851.371 8995.82 851.371C9014.36 851.371 9018.06 822.95 9048.95 813.065C9078.61 804.415 9097.15 827.893 9113.21 819.243C9128.04 809.358 9116.92 779.701 9139.16 758.695C9163.87 740.16 9189.82 747.574 9199.71 732.745C9207.12 717.917 9182.41 698.146 9193.53 668.49C9203.41 640.069 9231.83 633.891 9231.83 615.356C9231.83 598.056 9200.94 593.114 9193.53 562.222C9186.11 531.33 9207.12 515.266 9199.71 496.731C9189.82 481.902 9166.34 493.024 9139.16 472.017C9116.92 452.246 9129.27 421.354 9114.44 412.704C9097.15 405.29 9078.61 425.061 9048.95 418.883C9018.06 411.469 9014.36 379.341 8995.82 379.341C8978.52 379.341 8978.52 410.233 8942.69 418.883C8914.26 426.297 8895.73 405.29 8877.19 412.704C8862.37 421.354 8873.49 446.068 8852.48 472.017C8832.71 495.495 8801.82 481.902 8793.17 496.731C8785.75 515.266 8806.76 532.565 8799.35 562.222C8790.7 593.114 8759.81 598.056 8759.81 615.356Z" fill="black"/>
<path d="M8427.55 186.588C8434.96 186.588 8436.2 175.467 8448.55 170.524C8459.68 166.817 8465.85 176.702 8473.27 174.231C8479.45 169.288 8475.74 158.167 8484.39 149.517C8493.04 143.339 8504.16 144.575 8507.87 139.632C8509.1 133.453 8500.45 126.039 8505.4 113.683C8509.1 102.561 8520.22 100.09 8520.22 93.9116C8520.22 86.4976 8507.87 85.2619 8505.4 72.9051C8501.69 60.5484 8509.1 54.3699 8507.87 46.9558C8504.16 42.0131 8494.27 45.7202 8484.39 38.3061C8475.74 29.6563 8479.45 18.5352 8474.5 13.5925C8465.85 11.1211 8459.68 19.7708 8448.55 16.0638C8436.2 12.3568 8434.96 0 8427.55 0C8421.37 0 8421.37 12.3568 8406.54 16.0638C8395.42 19.7708 8388.01 11.1211 8380.59 13.5925C8375.65 18.5352 8379.36 27.185 8371.94 38.3061C8364.53 45.7202 8352.17 42.0131 8348.46 46.9558C8345.99 54.3699 8353.41 61.784 8349.7 72.9051C8347.23 85.2619 8334.87 86.4976 8334.87 93.9116C8334.87 100.09 8347.23 102.561 8349.7 113.683C8353.41 126.039 8345.99 133.453 8348.46 139.632C8352.17 144.575 8363.29 140.868 8371.94 149.517C8379.36 159.403 8375.65 169.288 8381.83 174.231C8388.01 176.702 8395.42 166.817 8406.54 170.524C8418.9 175.467 8421.37 186.588 8427.55 186.588ZM8362.06 940.353V291.62H8491.8V940.353H8362.06Z" fill="black"/>
<path d="M7751.47 955.191C7541.41 955.191 7427.73 790.846 7427.73 615.379C7427.73 434.97 7553.77 275.567 7751.47 275.567C7867.63 275.567 7980.08 338.587 8030.74 437.441V25.9597H8160.48V940.363H8030.74L8029.5 794.553C7975.13 892.171 7867.63 955.191 7751.47 955.191ZM7535.23 615.379C7535.23 633.914 7566.12 638.857 7573.54 668.513C7582.19 698.17 7558.71 720.412 7566.12 735.24C7574.77 750.068 7603.19 742.654 7624.2 764.896C7643.97 789.61 7631.61 816.795 7648.91 825.445C7666.21 835.33 7684.75 809.381 7714.4 818.03C7745.3 827.916 7750.24 855.101 7771.25 855.101C7788.55 853.865 7792.25 822.973 7824.38 813.088C7852.8 804.438 7871.34 827.916 7887.4 819.266C7902.23 809.381 7891.11 779.724 7914.58 758.718C7939.3 740.183 7965.25 747.597 7973.9 732.769C7981.31 717.94 7956.6 698.17 7967.72 668.513C7978.84 640.093 8007.26 633.914 8007.26 615.379C8007.26 598.079 7976.37 593.137 7967.72 562.245C7960.31 531.353 7981.31 515.289 7973.9 496.754C7965.25 481.926 7940.53 493.047 7914.58 472.04C7892.34 452.269 7904.7 421.377 7889.87 412.727C7871.34 405.313 7854.04 425.084 7824.38 418.906C7792.25 411.492 7788.55 379.364 7771.25 379.364C7752.71 379.364 7753.95 407.785 7718.11 416.434C7689.69 423.849 7666.21 400.371 7648.91 407.785C7634.09 416.434 7643.97 441.148 7624.2 467.097C7604.43 490.575 7573.54 479.454 7564.89 494.282C7557.47 511.582 7580.95 532.588 7573.54 562.245C7566.12 593.137 7535.23 598.079 7535.23 615.379Z" fill="black"/>
<path d="M7291.44 291.603V940.335H7161.69V852.602H7151.81C7119.68 906.972 7048.01 955.164 6942.98 955.164C6824.35 955.164 6698.31 874.844 6698.31 732.741V291.603H6828.06V699.378C6828.06 804.411 6913.32 843.952 6987.46 843.952C7086.32 843.952 7161.69 772.283 7161.69 689.492V291.603H7291.44Z" fill="black"/>
<path d="M6422.92 842.74C6464.94 845.211 6506.95 837.797 6547.73 820.497L6578.62 921.823C6519.31 944.065 6445.17 956.422 6387.09 953.951C6287 952.715 6204.21 881.046 6204.21 769.835V409.016H6139.95V291.626H6204.21V75.3823H6333.95V291.626H6566.26V409.016H6333.95V746.357C6333.95 818.026 6382.15 841.504 6422.92 842.74Z" fill="black"/>
<path d="M5717.81 955.179C5563.35 955.179 5413.83 892.16 5360.7 808.133L5415.07 687.037C5466.97 769.827 5602.89 836.554 5731.4 836.554C5840.14 836.554 5922.93 800.719 5922.93 726.579C5922.93 638.845 5762.29 596.832 5630.08 552.348C5490.45 505.392 5370.58 427.544 5381.71 285.441C5391.59 159.401 5507.74 59.3113 5720.28 59.3113C5867.33 59.3113 5984.72 112.446 6035.38 184.115L5976.07 296.562C5948.88 234.778 5838.91 182.879 5711.63 181.644C5596.71 181.644 5511.45 226.128 5511.45 299.033C5511.45 385.531 5660.97 434.958 5794.42 475.735C5956.3 522.691 6071.21 604.246 6046.5 764.885C6030.44 881.039 5908.11 955.179 5717.81 955.179Z" fill="black"/>
<path d="M4969.02 955.191C4833.1 955.191 4718.18 905.764 4718.18 740.183V25.9597H4847.93V706.819C4847.93 805.674 4898.59 837.801 4969.02 837.801V955.191Z" fill="black"/>
<path d="M4549.74 291.603V940.335H4419.99V852.602H4410.11C4377.98 906.972 4306.31 955.164 4201.28 955.164C4082.65 955.164 3956.61 874.844 3956.61 732.741V291.603H4086.36V699.378C4086.36 804.411 4171.62 843.952 4245.76 843.952C4344.62 843.952 4419.99 772.283 4419.99 689.492V291.603H4549.74Z" fill="black"/>
<path d="M3492 955.168C3305.42 955.168 3152.19 803.179 3152.19 615.356C3152.19 427.532 3305.42 275.544 3492 275.544C3679.83 275.544 3831.82 427.532 3831.82 615.356C3831.82 803.179 3679.83 955.168 3492 955.168ZM3255.99 615.356C3255.99 633.891 3286.88 638.834 3295.53 668.49C3304.18 698.146 3281.94 717.917 3289.35 732.745C3298 747.574 3327.66 736.452 3348.66 758.695C3369.67 784.644 3361.02 809.358 3375.85 819.243C3391.91 827.893 3409.21 803.179 3438.87 813.065C3471 822.95 3474.7 851.371 3492 851.371C3510.54 851.371 3514.25 822.95 3545.14 813.065C3574.79 804.415 3593.33 827.893 3609.39 819.243C3624.22 809.358 3613.1 779.701 3635.34 758.695C3660.06 740.16 3686 747.574 3695.89 732.745C3703.3 717.917 3678.59 698.146 3689.71 668.49C3699.6 640.069 3728.02 633.891 3728.02 615.356C3728.02 598.056 3697.13 593.114 3689.71 562.222C3682.3 531.33 3703.3 515.266 3695.89 496.731C3686 481.902 3662.53 493.024 3635.34 472.017C3613.1 452.246 3625.46 421.354 3610.63 412.704C3593.33 405.29 3574.79 425.061 3545.14 418.883C3514.25 411.469 3510.54 379.341 3492 379.341C3474.7 379.341 3474.7 410.233 3438.87 418.883C3410.45 426.297 3391.91 405.29 3373.38 412.704C3358.55 421.354 3369.67 446.068 3348.66 472.017C3328.89 495.495 3298 481.902 3289.35 496.731C3281.94 515.266 3302.94 532.565 3295.53 562.222C3286.88 593.114 3255.99 598.056 3255.99 615.356Z" fill="black"/>
<path d="M2738.43 955.179C2583.97 955.179 2434.45 892.16 2381.32 808.133L2435.69 687.037C2487.59 769.827 2623.51 836.554 2752.02 836.554C2860.76 836.554 2943.55 800.719 2943.55 726.579C2943.55 638.845 2782.92 596.832 2650.7 552.348C2511.07 505.392 2391.21 427.544 2402.33 285.441C2412.21 159.401 2528.37 59.3113 2740.9 59.3113C2887.95 59.3113 3005.34 112.446 3056 184.115L2996.69 296.562C2969.5 234.778 2859.53 182.879 2732.25 181.644C2617.34 181.644 2532.07 226.128 2532.07 299.033C2532.07 385.531 2681.59 434.958 2815.04 475.735C2976.92 522.691 3091.84 604.246 3067.12 764.885C3051.06 881.039 2928.73 955.179 2738.43 955.179Z" fill="black"/>
<path d="M1820.13 164.344C1838.66 87.7319 1890.56 59.3113 1954.82 59.3113C2020.31 59.3113 2070.97 87.7319 2090.74 164.344L2341.59 940.351H2204.43L2122.87 680.858H1788L1705.21 940.351H1568.05L1820.13 164.344ZM1825.07 563.469H2085.8L1967.18 189.058C1964.7 181.644 1961 176.701 1954.82 176.701C1948.64 176.701 1944.93 181.644 1943.7 189.058L1825.07 563.469Z" fill="black"/>
<path d="M1189.96 955.168C994.722 955.168 840.262 806.886 840.262 615.356C840.262 423.825 994.722 275.544 1189.96 275.544C1362.95 275.544 1560.66 402.819 1526.06 656.133H981.129C983.601 659.84 986.072 663.547 984.836 668.49C986.072 689.497 972.479 716.682 978.658 730.274C984.836 758.695 1020.67 748.809 1041.68 769.816C1063.92 794.529 1052.8 821.714 1067.63 830.364C1083.69 839.014 1107.17 815.536 1136.82 824.186C1168.95 834.071 1172.66 863.728 1189.96 863.728C1208.49 863.728 1212.2 834.071 1243.09 824.186C1272.75 815.536 1290.05 836.543 1306.11 827.893C1320.94 819.243 1306.11 790.822 1356.78 729.038L1487.76 783.408C1417.32 911.919 1314.76 955.168 1189.96 955.168ZM978.658 500.438C972.479 518.973 984.836 542.451 984.836 562.222C986.072 567.164 984.836 570.871 982.365 574.578H1396.32C1417.32 509.087 1379.02 483.138 1334.53 463.367C1311.06 451.01 1323.41 411.469 1308.58 401.583C1291.28 394.169 1272.75 415.176 1243.09 407.762C1212.2 400.348 1208.49 369.456 1189.96 369.456C1172.66 369.456 1172.66 400.348 1136.82 407.762C1108.4 415.176 1084.93 394.169 1066.39 401.583C1051.56 411.469 1062.68 437.418 1041.68 464.603C1021.91 486.845 984.836 474.488 978.658 500.438Z" fill="black"/>
<path d="M472.03 192.772H117.39V380.595C164.345 354.646 224.894 343.525 279.264 343.525C395.418 343.525 490.565 378.124 563.47 430.023C600.541 381.831 621.547 328.697 621.547 282.977C621.547 226.135 562.234 192.772 472.03 192.772ZM0 940.358V75.3823H472.03C638.847 75.3823 738.937 150.759 738.937 276.798C738.937 349.703 708.045 434.965 647.496 506.635C708.045 579.54 738.937 664.802 738.937 738.943C738.937 863.746 638.847 940.358 472.03 940.358H0ZM117.39 822.969H472.03C564.706 822.969 622.783 788.37 621.547 732.764C621.547 685.808 599.305 632.674 563.47 584.483C489.329 636.381 395.418 670.98 279.264 670.98C224.894 672.216 164.345 661.095 117.39 633.91V822.969ZM158.167 507.87C158.167 559.769 229.836 573.361 286.678 573.361C360.819 573.361 427.545 547.412 483.151 507.87C427.545 468.329 359.583 441.144 286.678 441.144C229.836 441.144 158.167 455.972 158.167 507.87Z" fill="black"/>
</svg>
