<svg width="4026" height="2473" viewBox="0 0 4026 2473" fill="none" xmlns="http://www.w3.org/2000/svg">
<path d="M2794.67 1216.05C2460.81 1216.05 2186.64 944.099 2186.64 608.026C2186.64 271.954 2460.81 0 2794.67 0C3130.74 0 3402.7 271.954 3402.7 608.026C3402.7 944.099 3130.74 1216.05 2794.67 1216.05ZM2372.37 608.026C2372.37 641.191 2427.64 650.035 2443.12 703.1C2458.6 756.164 2418.8 791.54 2432.07 818.072C2447.54 844.604 2500.61 824.705 2538.19 864.503C2575.78 910.934 2560.3 955.154 2586.84 972.842C2615.58 988.319 2646.53 944.099 2699.6 961.787C2757.08 979.475 2763.72 1030.33 2794.67 1030.33C2827.84 1030.33 2834.47 979.475 2889.74 961.787C2942.81 946.31 2975.97 988.319 3004.72 972.842C3031.25 955.154 3011.35 902.09 3051.15 864.503C3095.37 831.338 3141.8 844.604 3159.49 818.072C3172.75 791.54 3128.53 756.164 3148.43 703.1C3166.12 652.246 3216.97 641.191 3216.97 608.026C3216.97 577.072 3161.7 568.228 3148.43 512.953C3135.17 457.678 3172.75 428.935 3159.49 395.77C3141.8 369.238 3099.79 389.137 3051.15 351.55C3011.35 316.174 3033.46 260.899 3006.93 245.422C2975.97 232.155 2942.81 267.532 2889.74 256.477C2834.47 243.21 2827.84 185.724 2794.67 185.724C2763.72 185.724 2763.72 241 2699.6 256.477C2648.74 269.743 2615.58 232.155 2582.41 245.422C2555.88 260.899 2575.78 305.119 2538.19 351.55C2502.82 393.559 2447.54 369.238 2432.07 395.77C2418.8 428.935 2456.39 459.889 2443.12 512.953C2427.64 568.228 2372.37 577.072 2372.37 608.026Z" fill="black"/>
<path fill-rule="evenodd" clip-rule="evenodd" d="M176.432 1414.59C68.7566 1483.35 68.7911 1483.4 68.8279 1483.46L68.9127 1483.59L69.1232 1483.92L69.7073 1484.82C70.1693 1485.54 70.7765 1486.47 71.5293 1487.61C73.0347 1489.89 75.1231 1493.01 77.797 1496.92C83.144 1504.74 90.8379 1515.72 100.901 1529.41C121.019 1556.79 150.655 1595.06 189.992 1640.64C268.589 1731.7 386.409 1852.49 544.98 1973.78C862.696 2216.8 1344.81 2462.2 1999.61 2472.68C2656.76 2483.19 3146.07 2236.86 3469.73 1988.6C3631.28 1864.67 3751.97 1740.03 3832.63 1645.87C3873.01 1598.74 3903.5 1559.08 3924.21 1530.72C3934.57 1516.53 3942.49 1505.16 3947.98 1497.07C3950.73 1493.03 3952.88 1489.8 3954.42 1487.46C3955.19 1486.29 3955.81 1485.33 3956.27 1484.61L3956.87 1483.69L3957.16 1483.23C3957.2 1483.17 3957.23 1483.12 3849.41 1414.59L3957.23 1483.12L4025.75 1375.29L3810.11 1238.25L3741.73 1345.84L3741.68 1345.91L3741.65 1345.96L3741.64 1345.98L3741.58 1346.07L3740.86 1347.18C3740.04 1348.43 3738.64 1350.54 3736.66 1353.45C3732.7 1359.27 3726.43 1368.29 3717.85 1380.05C3700.67 1403.58 3674.26 1438 3638.59 1479.64C3567.15 1563.04 3459.12 1674.71 3314.22 1785.86C3024.96 2007.74 2590.4 2226.59 2003.7 2217.2C1414.64 2207.77 984.145 1988.01 700.215 1770.83C557.962 1662.02 452.7 1553.96 383.42 1473.69C348.818 1433.6 323.317 1400.59 306.784 1378.09C298.52 1366.85 292.509 1358.25 288.733 1352.73C286.845 1349.96 285.517 1347.97 284.746 1346.81L284.009 1345.68C284.002 1345.67 283.995 1345.66 283.989 1345.65L215.351 1238.16L0 1375.67L68.7566 1483.35L176.432 1414.59Z" fill="black"/>
<path d="M1278.1 1216.05C944.235 1216.05 670.07 944.099 670.07 608.026C670.07 271.954 944.235 0 1278.1 0C1614.17 0 1886.12 271.954 1886.12 608.026C1886.12 944.099 1614.17 1216.05 1278.1 1216.05ZM855.795 608.026C855.795 641.191 911.07 650.035 926.547 703.1C942.024 756.164 902.226 791.54 915.492 818.072C930.969 844.604 984.033 824.705 1021.62 864.503C1059.21 910.934 1043.73 955.154 1070.26 972.842C1099.01 988.319 1129.96 944.099 1183.02 961.787C1240.51 979.475 1247.14 1030.33 1278.1 1030.33C1311.26 1030.33 1317.89 979.475 1373.17 961.787C1426.23 946.31 1459.4 988.319 1488.14 972.842C1514.67 955.154 1494.78 902.09 1534.57 864.503C1578.79 831.338 1625.22 844.604 1642.91 818.072C1656.18 791.54 1611.96 756.164 1631.86 703.1C1649.55 652.246 1700.4 641.191 1700.4 608.026C1700.4 577.072 1645.12 568.228 1631.86 512.953C1618.59 457.678 1656.18 428.935 1642.91 395.77C1625.22 369.238 1583.22 389.137 1534.57 351.55C1494.78 316.174 1516.89 260.899 1490.35 245.422C1459.4 232.155 1426.23 267.532 1373.17 256.477C1317.89 243.21 1311.26 185.724 1278.1 185.724C1247.14 185.724 1247.14 241 1183.02 256.477C1132.17 269.743 1099.01 232.155 1065.84 245.422C1039.31 260.899 1059.21 305.119 1021.62 351.55C986.244 393.559 930.969 369.238 915.492 395.77C902.226 428.935 939.813 459.889 926.547 512.953C911.07 568.228 855.795 577.072 855.795 608.026Z" fill="black"/>
</svg>
