<svg width="4018" height="2468" viewBox="0 0 4018 2468" fill="none" xmlns="http://www.w3.org/2000/svg">
<path d="M1041.82 144.656C1074.46 39.1423 1165.84 0 1278.98 0C1394.29 0 1483.49 39.1423 1518.3 144.656L1959.97 1213.41H1718.47L1574.87 856.026L1278.98 87.6659L985.256 856.026L839.484 1213.41H597.98L1041.82 144.656ZM985.256 856.026L1278.98 87.6659L1574.87 856.026L1300.73 178.693C1296.38 168.482 1289.86 161.675 1278.98 161.675C1268.1 161.675 1261.57 168.482 1259.4 178.693L985.256 856.026Z" fill="black"/>
<path d="M2789.55 1213.41C2456.41 1213.41 2182.84 942.049 2182.84 606.706C2182.84 271.363 2456.41 0 2789.55 0C3124.89 0 3396.26 271.363 3396.26 606.706C3396.26 942.049 3124.89 1213.41 2789.55 1213.41ZM2368.16 606.706C2368.16 639.799 2423.32 648.624 2438.76 701.573C2454.21 754.522 2414.5 789.821 2427.73 816.296C2443.18 842.77 2496.12 822.914 2533.63 862.626C2571.14 908.956 2555.69 953.08 2582.17 970.73C2610.85 986.173 2641.73 942.049 2694.68 959.699C2752.04 977.348 2758.66 1028.09 2789.55 1028.09C2822.64 1028.09 2829.26 977.348 2884.42 959.699C2937.37 944.255 2970.46 986.173 2999.14 970.73C3025.61 953.08 3005.76 900.131 3045.47 862.626C3089.59 829.533 3135.92 842.77 3153.57 816.296C3166.81 789.821 3122.69 754.522 3142.54 701.573C3160.19 650.83 3210.93 639.799 3210.93 606.706C3210.93 575.819 3155.78 566.994 3142.54 511.839C3129.31 456.684 3166.81 428.004 3153.57 394.91C3135.92 368.436 3094.01 388.292 3045.47 350.786C3005.76 315.487 3027.82 260.332 3001.35 244.889C2970.46 231.651 2937.37 266.951 2884.42 255.92C2829.26 242.682 2822.64 185.321 2789.55 185.321C2758.66 185.321 2758.66 240.476 2694.68 255.92C2643.94 269.157 2610.85 231.651 2577.75 244.889C2551.28 260.332 2571.14 304.456 2533.63 350.786C2498.33 392.704 2443.18 368.436 2427.73 394.91C2414.5 428.004 2452 458.89 2438.76 511.839C2423.32 566.994 2368.16 575.819 2368.16 606.706Z" fill="black"/>
<path d="M177 1411.52C177 1411.52 757.104 2319.99 1998.26 2339.84C3239.41 2359.7 3842 1411.52 3842 1411.52" stroke="black" stroke-width="254.957" stroke-linecap="square" stroke-linejoin="round"/>
</svg>
